<?xml version="1.0" encoding="UTF-8" standalone="no"?>
<!DOCTYPE svg PUBLIC "-//W3C//DTD SVG 1.1//EN" "http://www.w3.org/Graphics/SVG/1.1/DTD/svg11.dtd">
<svg width="100%" height="100%" viewBox="0 0 800 600" version="1.1" xmlns="http://www.w3.org/2000/svg" xmlns:xlink="http://www.w3.org/1999/xlink" xml:space="preserve" xmlns:serif="http://www.serif.com/" style="fill-rule:evenodd;clip-rule:evenodd;stroke-linecap:round;stroke-linejoin:round;">
    <g id="_250mLFlask.svg" serif:id="250mLFlask.svg" transform="matrix(1,0,0,1,320.411,324.229)">
        <g transform="matrix(1,0,0,1,-25.375,-39.9438)">
            <g>
                <path d="M29.656,3.648C31.068,3.753 32.045,3.723 33.557,3.98C34.319,4.11 34.898,4.453 34.898,4.503M14.621,4.781C15.719,4.301 14.825,4.667 16.16,4.211C18.051,3.787 20.132,3.603 23.398,3.478C25.021,3.415 25.827,3.465 27.832,3.54" style="fill:none;fill-rule:nonzero;stroke:rgb(30,30,30);stroke-width:0.17px;"/>
                <path d="M34.025,61.921C31.217,61.613 28.394,61.46 25.568,61.464C15.637,61.464 7.094,63.261 3.303,65.836M47.834,65.835C46.527,64.948 44.656,64.153 42.358,63.492" style="fill:none;fill-rule:nonzero;stroke:rgb(30,30,30);stroke-width:0.28px;"/>
                <path d="M35.018,6.026C33.569,7.097 31.955,7.618 29.381,7.977C26.25,8.321 23.748,8.434 20.154,8.033" style="fill:none;fill-rule:nonzero;stroke:rgb(30,30,30);stroke-width:0.17px;"/>
                <path d="M6.136,73.25C2.827,71.593 2.069,69.493 2.069,67.72M48.681,67.72C48.681,71.265 45.671,76.12 25.403,76.12C18.424,76.12 13.492,75.545 10.024,74.645" style="fill:none;fill-rule:nonzero;stroke:rgb(30,30,30);stroke-width:0.28px;"/>
                <path d="M15.088,5.857C16.036,6.144 15.604,5.989 16.973,6.342C18.946,6.85 21.673,7.165 24.684,7.165C29.101,7.165 32.627,6.449 34.349,5.511C34.766,5.285 34.846,4.793 34.891,4.57" style="fill:none;fill-rule:nonzero;stroke:rgb(50,50,50);stroke-width:0.44px;"/>
                <path d="M15.472,6.964C17.511,7.519 18.591,7.844 18.8,7.898" style="fill:none;fill-rule:nonzero;stroke:rgb(30,30,30);stroke-width:0.17px;"/>
            </g>
            <g opacity="0.4">
                <ellipse cx="24.531" cy="51.384" rx="19.791" ry="4.41" style="fill:white;"/>
                <g opacity="0.6">
                    <path d="M4.693,51.384L44.597,51.384L49.613,67.804L0.276,67.804L4.693,51.384Z" style="fill:white;fill-rule:nonzero;"/>
                    <ellipse cx="24.531" cy="67.804" rx="24.255" ry="7.718" style="fill:white;"/>
                </g>
            </g>
            <g>
                <path d="M32.101,50.58C33.766,50.49 35.425,50.325 37.075,50.086" style="fill:rgb(26,26,26);fill-rule:nonzero;stroke:rgb(26,26,26);stroke-width:0.39px;"/>
                <path d="M33.215,57.275C34.879,57.185 36.539,57.021 38.188,56.781" style="fill:rgb(26,26,26);fill-rule:nonzero;stroke:rgb(26,26,26);stroke-width:0.33px;"/>
                <path d="M34.662,64.119C36.326,64.029 37.986,63.864 39.635,63.625" style="fill:rgb(26,26,26);fill-rule:nonzero;stroke:rgb(26,26,26);stroke-width:0.39px;"/>
                <path d="M30.489,41.923C32.153,41.833 33.813,41.669 35.462,41.43" style="fill:rgb(26,26,26);fill-rule:nonzero;stroke:rgb(26,26,26);stroke-width:0.33px;"/>
                <path d="M28.653,29.8C30.317,29.71 31.976,29.545 33.625,29.306" style="fill:rgb(26,26,26);fill-rule:nonzero;stroke:rgb(26,26,26);stroke-width:0.39px;"/>
                <path d="M35.712,7.893L35.712,21.114L49.731,67.975C49.731,71.439 46.582,77.244 25.375,77.244C4.168,77.244 1.019,71.439 1.019,67.975L14.475,21.114L14.475,7.893C14.437,4.857 13.552,5.902 13.447,4.122C13.419,3.067 20.198,2.381 24.597,2.381C27.514,2.523 35.43,2.636 36.261,4.145C36.164,5.965 35.712,4.194 35.712,7.893Z" style="fill:none;fill-rule:nonzero;stroke:rgb(50,50,50);stroke-width:0.44px;"/>
            </g>
            <path d="M33.618,29.338L39.664,63.613" style="fill:none;fill-rule:nonzero;stroke:rgb(26,26,26);stroke-width:0.44px;stroke-linejoin:miter;"/>
            <path d="M23.62,62.458C23.62,63.569 22.768,64.607 21.712,64.719C18.389,65.072 14.424,64.672 11.825,63.854C10.773,63.703 9.926,62.632 9.926,61.522L9.926,57.978C9.926,56.866 10.773,56.137 11.825,56.288C14.527,56.88 18.389,57.506 21.712,57.152C22.768,57.041 23.62,57.803 23.62,58.915L23.62,62.458Z" style="fill:white;fill-rule:nonzero;stroke:rgb(26,26,26);stroke-width:0.34px;stroke-linecap:butt;stroke-linejoin:miter;"/>
            <g>
                <path d="M5.604,51.953L5.788,50.91C5.451,50.845 5.114,50.777 4.778,50.709L4.91,49.991C5.245,50.058 5.579,50.124 5.914,50.19L6.098,49.147C6.319,49.191 6.541,49.233 6.763,49.274L6.584,50.319C6.92,50.382 7.257,50.444 7.593,50.504L7.476,51.226C7.137,51.165 6.8,51.103 6.461,51.039L6.283,52.083L5.604,51.953ZM8.784,52.526L8.94,51.478C8.602,51.422 8.264,51.364 7.927,51.306L8.041,50.583C8.376,50.642 8.712,50.699 9.048,50.754L9.205,49.707C9.426,49.744 9.648,49.78 9.87,49.815L9.72,50.863C10.056,50.916 10.393,50.968 10.73,51.018L10.634,51.742C10.294,51.692 9.955,51.641 9.616,51.587L9.467,52.637L8.784,52.525L8.784,52.526ZM24.258,53.521L24.183,52.465C23.848,52.491 23.512,52.512 23.176,52.528L23.143,51.797C23.474,51.781 23.803,51.76 24.132,51.735L24.058,50.678C24.271,50.663 24.483,50.644 24.695,50.624L24.788,51.678C25.116,51.647 25.443,51.611 25.769,51.569L25.854,52.294C25.521,52.337 25.187,52.374 24.853,52.407L24.945,53.461C24.716,53.483 24.487,53.504 24.258,53.522L24.258,53.521ZM27.455,53.116L27.285,52.073C27.285,52.073 26.561,52.436 26.296,52.233C26.106,52.087 26.202,51.51 26.202,51.51C26.526,51.463 26.848,51.412 27.168,51.353L26.998,50.31C27.205,50.272 27.409,50.233 27.614,50.19L27.807,51.23C28.126,51.163 28.444,51.091 28.76,51.012L28.919,51.725C28.594,51.805 28.268,51.879 27.941,51.947L28.133,52.986C27.907,53.032 27.682,53.076 27.455,53.117L27.455,53.116Z" style="fill:none;fill-rule:nonzero;"/>
            </g>
        </g>
    </g>
    <g transform="matrix(1,0,0,1.04333,-0.00974856,-11.0911)">
        <path d="M329.781,290.728L331.237,282.851L331.242,282.827C331.242,283.225 326.233,283.548 320.063,283.548C314.808,283.548 310.395,283.314 309.201,282.999C309.176,282.992 309.151,282.985 309.129,282.978L309.114,282.974C308.963,282.926 308.883,282.877 308.883,282.827L308.886,282.858L310.56,291.189L310.573,291.259C310.573,291.259 310.602,291.267 310.657,291.282C311.161,291.417 312.866,292.526 320.686,292.531C327.944,292.536 329.781,290.728 329.781,290.728Z" style="fill:rgb(26,26,26);stroke:rgb(26,26,26);stroke-width:0.2px;stroke-miterlimit:1.5;"/>
    </g>
    <g transform="matrix(1.00163,0,0,1.52875,-0.609581,-148.949)">
        <ellipse cx="320.152" cy="283.159" rx="11.251" ry="0.792" style="fill:rgb(51,51,51);"/>
    </g>
</svg>
