<?xml version="1.0" encoding="UTF-8" standalone="no"?><!DOCTYPE svg PUBLIC "-//W3C//DTD SVG 1.1//EN" "http://www.w3.org/Graphics/SVG/1.1/DTD/svg11.dtd"><svg width="100%" height="100%" viewBox="0 0 2500 834" version="1.1" xmlns="http://www.w3.org/2000/svg" xmlns:xlink="http://www.w3.org/1999/xlink" xml:space="preserve" xmlns:serif="http://www.serif.com/" style="fill-rule:evenodd;clip-rule:evenodd;stroke-linecap:round;stroke-linejoin:round;stroke-miterlimit:1.5;"><path d="M680.148,283.388c0,-27.87 -22.627,-50.497 -50.497,-50.497l-488.518,-0c-27.87,-0 -50.497,22.627 -50.497,50.497l-0,313.993c-0,27.87 22.627,50.497 50.497,50.497l488.518,-0c27.87,-0 50.497,-22.627 50.497,-50.497l0,-313.993Z" style="fill:#fff;stroke:#000;stroke-width:4.17px;"/><path d="M1528.79,283.388c0,-27.87 -22.626,-50.497 -50.496,-50.497l-488.519,-0c-27.87,-0 -50.497,22.627 -50.497,50.497l0,313.993c0,27.87 22.627,50.497 50.497,50.497l488.519,-0c27.87,-0 50.496,-22.627 50.496,-50.497l0,-313.993Z" style="fill:#fff;stroke:#000;stroke-width:4.17px;"/><path d="M2377.43,283.388c-0,-27.87 -22.627,-50.497 -50.497,-50.497l-488.519,-0c-27.87,-0 -50.496,22.627 -50.496,50.497l-0,313.993c-0,27.87 22.626,50.497 50.496,50.497l488.519,-0c27.87,-0 50.497,-22.627 50.497,-50.497l-0,-313.993Z" style="fill:#fff;stroke:#000;stroke-width:4.17px;"/><path d="M1906.46,461.218c0,4.604 -4.667,8.333 -10.417,8.333c-5.75,0 -10.416,-3.729 -10.416,-8.333c-0,-4.6 4.666,-8.334 10.416,-8.334c5.75,0 10.417,3.734 10.417,8.334Zm37.5,-8.334c0,4.605 -4.667,8.334 -10.417,8.334c-5.75,-0 -10.416,-3.729 -10.416,-8.334c-0,-4.604 4.666,-8.333 10.416,-8.333c5.75,0 10.417,3.729 10.417,8.333Z" style="fill-rule:nonzero;"/><path d="M1939.79,452.884l0,-37.5l4.167,0l0,37.5l-4.167,0Zm-33.333,-33.333l0,41.667l-4.167,-0l0,-41.667l4.167,0Z"/><path d="M1902.29,419.155c0,-2.129 1.632,-3.933 3.75,-4.146l33.334,-3.333c0.138,-0.014 0.277,-0.021 0.416,-0.021c2.286,0 4.167,1.881 4.167,4.167l0,3.729l-41.667,4.167l0,-4.563Z" style="fill-rule:nonzero;"/><path d="M2082.68,469.551c-16.001,0 -29.167,-13.166 -29.167,-29.167c-0,-16 13.166,-29.166 29.167,-29.166c16,-0 29.166,13.166 29.166,29.166c0,16.001 -13.166,29.167 -29.166,29.167Zm-0,4.167c18.286,-0 33.333,-15.048 33.333,-33.334c-0,-18.286 -15.047,-33.333 -33.333,-33.333c-18.287,0 -33.334,15.047 -33.334,33.333c0,18.286 15.047,33.334 33.334,33.334Z" style="fill-rule:nonzero;"/><path d="M2082.68,461.218c-11.429,-0 -20.834,-9.405 -20.834,-20.834c0,-11.428 9.405,-20.833 20.834,-20.833c11.428,0 20.833,9.405 20.833,20.833c-0,11.429 -9.405,20.834 -20.833,20.834Zm-0,4.166c13.714,0 25,-11.285 25,-25c-0,-13.714 -11.286,-25 -25,-25c-13.715,0 -25,11.286 -25,25c-0,13.715 11.285,25 25,25Z" style="fill-rule:nonzero;"/><path d="M2082.68,452.884c-6.858,0 -12.5,-5.642 -12.5,-12.5c-0,-6.857 5.642,-12.5 12.5,-12.5c6.857,0 12.5,5.643 12.5,12.5c-0,6.858 -5.643,12.5 -12.5,12.5Zm-0,4.167c9.143,0 16.666,-7.524 16.666,-16.667c0,-9.143 -7.523,-16.666 -16.666,-16.666c-9.144,-0 -16.667,7.523 -16.667,16.666c-0,9.143 7.523,16.667 16.667,16.667Z" style="fill-rule:nonzero;"/><path d="M2088.93,440.384c-0,3.429 -2.822,6.25 -6.25,6.25c-3.429,0 -6.25,-2.821 -6.25,-6.25c-0,-3.428 2.821,-6.25 6.25,-6.25c3.428,0 6.25,2.822 6.25,6.25Z" style="fill-rule:nonzero;"/><path d="M901.867,421.678l37.412,18.706l-37.412,18.707c9.353,-9.354 9.353,-28.06 -0,-37.413Z"/><path d="M680.148,440.384l229.201,0" style="fill:none;stroke:#000;stroke-width:8.33px;"/><path d="M1750.51,421.678l37.413,18.706l-37.413,18.707c9.353,-9.354 9.353,-28.06 -0,-37.413Z"/><path d="M1528.79,440.384l229.201,0" style="fill:none;stroke:#000;stroke-width:8.33px;"/><text x="269.889px" y="344.443px" style="font-family:'ArialMT', 'Arial', sans-serif;font-size:100px;">Input</text><text x="1928.28px" y="334.124px" style="font-family:'ArialMT', 'Arial', sans-serif;font-size:100px;">Output</text><text x="956.02px" y="348.61px" style="font-family:'ArialMT', 'Arial', sans-serif;font-size:100px;">AI/ML<tspan x="1213.49px 1241.27px " y="348.61px 348.61px "> M</tspan>odel</text><path d="M220.16,425c0,-6.857 5.643,-12.5 12.5,-12.5c6.858,0 12.5,5.643 12.5,12.5l0,20.833c0,6.858 -5.642,12.5 -12.5,12.5c-6.857,0 -12.5,-5.642 -12.5,-12.5l0,-20.833Z" style="fill-rule:nonzero;"/><path d="M213.91,439.583c1.143,0 2.084,0.941 2.084,2.084l-0,4.166c-0,9.143 7.523,16.667 16.666,16.667c9.143,0 16.667,-7.524 16.667,-16.667l0,-4.166c0,-1.143 0.941,-2.084 2.083,-2.084c1.143,0 2.084,0.941 2.084,2.084l-0,4.166c-0,10.645 -8.159,19.665 -18.75,20.73l-0,8.437l12.5,0c1.143,0 2.083,0.94 2.083,2.083c0,1.143 -0.94,2.084 -2.083,2.084l-29.167,-0c-1.143,-0 -2.083,-0.941 -2.083,-2.084c-0,-1.143 0.94,-2.083 2.083,-2.083l12.5,0l0,-8.437c-10.591,-1.065 -18.75,-10.085 -18.75,-20.73l0,-4.166c0,-1.143 0.941,-2.084 2.083,-2.084Z"/><path d="M468.702,422.764c-0,-4.572 3.761,-8.334 8.333,-8.334l31.25,0c4.161,-0 7.717,3.117 8.263,7.242l12.958,-5.758c0.534,-0.238 1.111,-0.361 1.696,-0.361c2.285,-0 4.165,1.88 4.166,4.165l0,31.092c-0.002,2.284 -1.882,4.163 -4.166,4.163c-0.583,-0 -1.159,-0.123 -1.692,-0.359l-12.962,-5.759c-0.546,4.126 -4.102,7.243 -8.263,7.242l-31.25,0c-4.572,0 -8.333,-3.762 -8.333,-8.333l-0,-25Z"/><path d="M259.744,561.292c1.143,0 2.083,0.941 2.083,2.083l0,37.5c0,1.143 -0.94,2.084 -2.083,2.084l-54.167,-0c-1.143,-0 -2.083,-0.941 -2.083,-2.084l-0,-37.5c-0,-1.142 0.94,-2.083 2.083,-2.083l54.167,0Zm-54.167,-4.167c-3.429,0 -6.25,2.822 -6.25,6.25l0,37.5c0,3.429 2.821,6.25 6.25,6.25l54.167,0c3.428,0 6.25,-2.821 6.25,-6.25l-0,-37.5c-0,-3.428 -2.822,-6.25 -6.25,-6.25l-54.167,0Z" style="fill-rule:nonzero;"/><path d="M211.827,571.709c0,-1.143 0.941,-2.084 2.083,-2.084l37.5,0c1.143,0 2.084,0.941 2.084,2.084c-0,1.143 -0.941,2.083 -2.084,2.083l-37.5,0c-1.142,0 -2.083,-0.94 -2.083,-2.083Zm0,10.416c0,-1.142 0.941,-2.083 2.083,-2.083l37.5,0c1.143,0 2.084,0.941 2.084,2.083c-0,1.143 -0.941,2.084 -2.084,2.084l-37.5,-0c-1.142,-0 -2.083,-0.941 -2.083,-2.084Zm0,10.417c0,-1.143 0.941,-2.083 2.083,-2.083l25,-0c1.143,-0 2.084,0.94 2.084,2.083c-0,1.143 -0.941,2.083 -2.084,2.083l-25,0c-1.142,0 -2.083,-0.94 -2.083,-2.083Z" style="fill-rule:nonzero;"/><path d="M499.952,548.9c-10.592,1.084 -18.75,10.371 -18.75,21.509l-0,1.3l18.75,-0l-0,-22.809Zm4.166,0l0,22.809l18.75,-0l0,-1.3c0,-11.138 -8.158,-20.425 -18.75,-21.509Zm18.75,26.975l-41.666,0l-0,17.971c-0,11.854 9.25,21.613 20.833,21.613c11.583,-0 20.833,-9.759 20.833,-21.617l0,-17.967Z" style="fill-rule:nonzero;"/><clipPath id="_clip1"><rect x="352.059" y="469.551" width="66.667" height="66.667"/></clipPath><g clip-path="url(#_clip1)"><path d="M393.725,477.884c0.001,3.789 -2.581,7.124 -6.25,8.071l0,21.196c3.596,0.346 6.25,1.571 6.25,3.025c0,1.725 -3.729,3.125 -8.333,3.125c-4.604,0 -8.333,-1.4 -8.333,-3.125c-0,-1.458 2.654,-2.679 6.25,-3.025l-0,-21.196c-3.668,-0.947 -6.25,-4.281 -6.25,-8.069c-0,-4.571 3.761,-8.333 8.333,-8.333c4.571,0 8.332,3.761 8.333,8.331Z" style="fill-rule:nonzero;"/><path d="M352.059,509.822l-0,7.154c0,1.575 0.895,3.021 2.304,3.725l27.304,13.654c2.343,1.171 5.107,1.171 7.45,0l27.304,-13.654c1.409,-0.704 2.303,-2.15 2.304,-3.725l0,-7.154c0,-0.417 -0.25,-0.792 -0.633,-0.958l-26.45,-11.334l-0,4.138l21.779,9.075c0.193,0.081 0.319,0.271 0.319,0.48c-0,0.207 -0.124,0.396 -0.315,0.478l-24.75,10.608c-2.095,0.899 -4.471,0.899 -6.566,0l-24.75,-10.608c-0.191,-0.082 -0.315,-0.271 -0.315,-0.478c0,-0.209 0.126,-0.399 0.319,-0.48l21.779,-9.075l-0.054,-4.117l-26.396,11.313c-0.383,0.163 -0.633,0.541 -0.633,0.958Z" style="fill-rule:nonzero;"/></g><path d="M2217.22,411.218c-2.286,-0 -4.166,1.881 -4.166,4.166l-0,19.109c-0,1.104 0.439,2.165 1.22,2.946l29.167,29.166c1.616,1.616 4.276,1.616 5.892,0l19.108,-19.108c1.616,-1.616 1.616,-4.276 0,-5.892l-29.167,-29.166c-0.781,-0.782 -1.841,-1.221 -2.945,-1.221l-19.109,-0Zm16.667,14.583c-0,3.429 -2.821,6.25 -6.25,6.25c-3.429,0 -6.25,-2.821 -6.25,-6.25c-0,-3.429 2.821,-6.25 6.25,-6.25c3.429,0 6.25,2.821 6.25,6.25Z" style="fill-rule:nonzero;"/></svg>