<svg xmlns="http://www.w3.org/2000/svg" xmlns:xlink="http://www.w3.org/1999/xlink" width="594.667" height="153.333" viewBox="0 0 446 115"><style><![CDATA[.B{overflow:visible}.C{stroke:none}.D{fill:rgb(0%,0%,0%)}]]></style><defs><symbol id="A" class="B"><path d="M2.734-6v-1.047l-2.28.172v.5c1.125 0 1.234.094 1.234.797v7.453c0 .72-.172.72-1.234.72v.5l1.78-.047 1.797.047v-.5c-1.062 0-1.234 0-1.234-.72V-.937c.078.25.734 1.11 1.953 1.11 1.89 0 3.547-1.562 3.547-3.61 0-2.03-1.547-3.61-3.328-3.61-1.234 0-1.906.703-2.234 1.047zm.063 4.188v-3.562C3.25-6.187 4.03-6.64 4.844-6.64c1.172 0 2.14 1.39 2.14 3.203 0 1.922-1.125 3.266-2.297 3.266-.64 0-1.25-.328-1.672-.97-.22-.344-.22-.36-.22-.672zm0 0" class="C"/></symbol><symbol id="B" class="B"><path d="M9.766-9.64c0-.578.03-.75 1.266-.75h.375v-.5c-.547.047-1.734.047-2.344.047-.594 0-1.797 0-2.36-.047v.5h.39c1.22 0 1.25.172 1.25.75v3.734h-4.75V-9.64c0-.578.03-.75 1.25-.75h.39v-.5c-.562.047-1.75.047-2.344.047-.61 0-1.812 0-2.36-.047v.5h.375c1.234 0 1.266.172 1.266.75v8.39c0 .578-.03.75-1.266.75H.53V0c.547-.047 1.734-.047 2.344-.047L5.234 0v-.5h-.39c-1.22 0-1.25-.172-1.25-.75v-4.172h4.75v4.172c0 .578-.03.75-1.25.75h-.39V0c.563-.047 1.75-.047 2.344-.047l2.36.047v-.5h-.375c-1.234 0-1.266-.172-1.266-.75zm0 0" class="C"/></symbol><symbol id="C" class="B"><path d="M10.953-5.22c.234 0 .53 0 .53-.312s-.297-.312-.516-.312H1.422c-.22 0-.53 0-.53.313s.313.313.547.313zm.016 3.094c.22 0 .516 0 .516-.312s-.297-.312-.53-.312H1.438c-.234 0-.547 0-.547.313s.313.313.53.313zm0 0" class="C"/></symbol><symbol id="D" class="B"><path d="M2.828-11.062L.53-10.89v.5c1.11 0 1.234.11 1.234.89v8.28c0 .72-.172.72-1.234.72V0l1.766-.047L4.063 0v-.5C3-.5 2.828-.5 2.828-1.22zm0 0" class="C"/></symbol><symbol id="E" class="B"><path d="M7.5-3.406c0-2.047-1.594-3.734-3.516-3.734C2-7.14.453-5.406.453-3.406.453-1.36 2.11.172 3.97.172 5.89.172 7.5-1.39 7.5-3.406zM3.984-.22c-.687 0-1.39-.344-1.812-1.078C1.766-2 1.766-2.97 1.766-3.53c0-.625 0-1.484.39-2.187.422-.734 1.172-1.078 1.813-1.078.703 0 1.39.36 1.797 1.047.422.688.422 1.61.422 2.22 0 .563 0 1.422-.36 2.125C5.484-.687 4.78-.22 3.984-.22zm0 0" class="C"/></symbol><symbol id="F" class="B"><path d="M3.53-2.734c-1.375 0-1.375-1.594-1.375-1.97 0-.422.016-.937.25-1.344.125-.187.5-.625 1.125-.625 1.39 0 1.39 1.594 1.39 1.953 0 .438-.016.938-.25 1.344-.125.188-.5.64-1.14.64zm-1.844.61c0-.062 0-.422.266-.75.625.453 1.28.5 1.578.5 1.484 0 2.594-1.094 2.594-2.328a2.2 2.2 0 0 0-.656-1.547c.578-.547 1.14-.625 1.438-.625.03 0 .11 0 .156.016-.172.063-.25.25-.25.438 0 .266.203.47.453.47.156 0 .47-.125.47-.484 0-.266-.203-.78-.812-.78-.328 0-1.03.094-1.687.75C4.563-7 3.89-7.047 3.53-7.047c-1.47 0-2.578 1.11-2.578 2.328a2.21 2.21 0 0 0 .75 1.641 2.22 2.22 0 0 0-.484 1.328c0 .484.203 1.094.688 1.422C.953-.062.453.625.453 1.266.453 2.406 2.03 3.28 3.97 3.28c1.875 0 3.53-.812 3.53-2.047C7.5.672 7.28-.14 6.47-.594c-.844-.437-1.766-.437-2.734-.437-.406 0-1.094 0-1.203-.016-.5-.062-.844-.562-.844-1.078zm2.297 5.047c-1.61 0-2.703-.812-2.703-1.656 0-.734.594-1.328 1.297-1.375h.938c1.375 0 3.156 0 3.156 1.375 0 .86-1.125 1.656-2.687 1.656zm0 0" class="C"/></symbol><symbol id="G" class="B"><path d="M4.063 3.984v-.64H2.516v-14.656h1.547v-.64H1.875V3.984zm0 0" class="C"/></symbol><symbol id="H" class="B"><path d="M11.484-5.406c0-3.25-2.406-5.828-5.297-5.828-2.86 0-5.297 2.547-5.297 5.828C.89-2.14 3.344.344 6.188.344c2.89 0 5.297-2.53 5.297-5.75zM6.203-.062c-1.53 0-3.672-1.406-3.672-5.562 0-4.125 2.328-5.22 3.656-5.22 1.39 0 3.656 1.14 3.656 5.22 0 4.22-2.172 5.563-3.64 5.563zm0 0" class="C"/></symbol><symbol id="I" class="B"><path d="M2.53-11.953H.344v.64H1.89V3.344H.344v.64H2.53zm0 0" class="C"/></symbol><symbol id="J" class="B"><path d="M4.688-10.203c0-.375 0-.406-.375-.406-.984 1.016-2.39 1.016-2.89 1.016v.5c.313 0 1.25 0 2.078-.422v8.25c0 .578-.047.766-1.47.766h-.516V0c.563-.047 1.938-.047 2.578-.047L6.672 0v-.5h-.5c-1.437 0-1.484-.172-1.484-.766zm0 0" class="C"/></symbol><symbol id="K" class="B"><path d="M7.328-5.094c0-1.28-.078-2.562-.64-3.734-.734-1.53-2.03-1.78-2.703-1.78-.953 0-2.125.406-2.766 1.89C.703-7.625.625-6.375.625-5.094c0 1.188.063 2.625.72 3.828A2.9 2.9 0 0 0 3.969.344c.86 0 2.078-.328 2.766-1.844.516-1.094.594-2.344.594-3.594zM3.97 0c-.625 0-1.562-.406-1.844-1.922-.187-.97-.187-2.422-.187-3.375l.14-2.922c.297-1.906 1.484-2.047 1.89-2.047.53 0 1.578.28 1.875 1.86.172.906.172 2.11.172 3.11 0 1.203 0 2.28-.187 3.297-.234 1.516-1.14 2-1.86 2zm0 0" class="C"/></symbol><symbol id="L" class="B"><path d="M4.688-2.625v1.375c0 .578-.03.75-1.22.75H3.14V0l2.156-.047L7.453 0v-.5h-.328c-1.187 0-1.22-.172-1.22-.75v-1.375H7.5v-.5H5.906v-7.25c0-.312 0-.422-.25-.422-.14 0-.187 0-.312.203l-4.89 7.47v.5zm.094-.5H.89l3.89-5.937zm0 0" class="C"/></symbol><symbol id="M" class="B"><path d="M6.516-3.672h4.453c.22 0 .516 0 .516-.312s-.297-.312-.516-.312H6.516v-4.47c0-.22 0-.53-.312-.53-.328 0-.328.313-.328.53v4.47H1.422c-.22 0-.53 0-.53.313s.313.313.53.313h4.453v4.47c0 .22 0 .53.328.53.313 0 .313-.312.313-.53zm0 0" class="C"/></symbol><symbol id="N" class="B"><path d="M2.734-6.016v-5.047l-2.28.172v.5c1.11 0 1.234.11 1.234.89V0h.406c.016-.016.14-.234.563-.984.25.36.906 1.156 2.094 1.156 1.89 0 3.547-1.562 3.547-3.61 0-2.03-1.562-3.61-3.375-3.61-1.234 0-1.922.75-2.187 1.03zm.063 4.203v-3.28c0-.312 0-.328.172-.578.625-.89 1.5-1.016 1.875-1.016.72 0 1.297.406 1.672 1.016.422.656.47 1.563.47 2.22 0 .578-.03 1.547-.5 2.25-.328.5-.937 1.03-1.797 1.03-.72 0-1.297-.39-1.672-.97-.22-.344-.22-.39-.22-.672zm0 0" class="C"/></symbol><symbol id="O" class="B"><path d="M5.313-1.22c.063.64.484 1.313 1.234 1.313.344 0 1.313-.22 1.313-1.516v-.89h-.406v.89c0 .922-.39 1.016-.562 1.016-.53 0-.594-.703-.594-.797V-4.39c0-.656 0-1.28-.578-1.875-.625-.625-1.422-.875-2.187-.875-1.297 0-2.406.75-2.406 1.797 0 .484.328.75.734.75.453 0 .734-.312.734-.734 0-.187-.078-.72-.812-.734C2.22-6.61 3-6.797 3.5-6.797c.78 0 1.703.625 1.703 2.047v.594c-.812.047-1.937.094-2.937.563C1.063-3.047.672-2.22.672-1.516.672-.22 2.22.172 3.22.172a2.23 2.23 0 0 0 2.094-1.391zm-.11-2.61v1.594c0 1.516-1.156 2.063-1.875 2.063-.78 0-1.437-.562-1.437-1.36 0-.875.672-2.203 3.313-2.297zm0 0" class="C"/></symbol><symbol id="P" class="B"><path d="M3.313-3.094c.36.063 1.656.328 1.656 1.47 0 .813-.547 1.453-1.797 1.453-1.344 0-1.906-.906-2.22-2.266-.047-.203-.062-.266-.22-.266-.203 0-.203.11-.203.39v2.11c0 .266 0 .375.172.375.078 0 .094-.016.39-.312.03-.03.03-.062.328-.375a2.38 2.38 0 0 0 1.75.688C5 .172 5.734-.89 5.734-2.047c0-.844-.47-1.312-.672-1.5-.516-.516-1.14-.64-1.812-.766-.89-.187-1.953-.39-1.953-1.312 0-.562.406-1.22 1.78-1.22 1.75 0 1.828 1.438 1.86 1.938.016.14.156.14.188.14.22 0 .22-.078.22-.375v-1.61c0-.28 0-.39-.187-.39-.078 0-.11 0-.312.188-.047.063-.203.22-.266.266-.61-.453-1.266-.453-1.5-.453C1.125-7.14.53-6.078.53-5.187c0 .563.25 1.016.688 1.36.5.422.953.516 2.094.734zm0 0" class="C"/></symbol><symbol id="Q" class="B"><path d="M1.78-4.016c.094-2.375 1.438-2.78 1.984-2.78 1.64 0 1.797 2.156 1.797 2.78zm-.016.328H6.22c.344 0 .39 0 .39-.328 0-1.578-.86-3.125-2.844-3.125C1.906-7.14.453-5.5.453-3.5c0 2.125 1.672 3.672 3.5 3.672C5.89.172 6.61-1.594 6.61-1.89c0-.172-.125-.203-.203-.203-.14 0-.172.094-.203.234-.562 1.64-2 1.64-2.156 1.64-.797 0-1.437-.484-1.797-1.078-.484-.766-.484-1.812-.484-2.39zm0 0" class="C"/></symbol><symbol id="R" class="B"><path d="M1.86-3.47c0-2.61 1.313-3.266 2.156-3.266.14 0 1.14.016 1.703.578-.656.047-.75.53-.75.734 0 .422.297.734.734.734a.69.69 0 0 0 .734-.75C6.438-6.516 5.234-7.14 4-7.14 2.016-7.14.547-5.422.547-3.437c0 2.03 1.578 3.61 3.422 3.61a2.61 2.61 0 0 0 2.641-2.062c0-.172-.156-.172-.203-.172-.14 0-.172.063-.203.172C5.734-.422 4.703-.22 4.11-.22c-.844 0-2.25-.687-2.25-3.25zm0 0" class="C"/></symbol><symbol id="S" class="B"><path d="M2.828-7.047l-2.234.172v.5c1.03 0 1.172.094 1.172.875v4.28c0 .72-.172.72-1.234.72V0l1.75-.047L3.938 0v-.5c-1.047 0-1.11-.078-1.11-.703zm.063-2.766a.83.83 0 0 0-.844-.844.85.85 0 0 0-.844.844.85.85 0 0 0 .844.844.84.84 0 0 0 .844-.844zm0 0" class="C"/></symbol><symbol id="T" class="B"><path d="M6.063-.875V.172L8.406 0v-.5c-1.125 0-1.25-.11-1.25-.89v-9.672l-2.297.172v.5c1.125 0 1.25.11 1.25.89v3.438c-.47-.562-1.156-.984-2.016-.984C2.22-7.047.547-5.484.547-3.422.547-1.406 2.11.172 3.922.172c1.016 0 1.734-.53 2.14-1.047zm0-4.266v3.266c0 .28 0 .313-.187.578C5.406-.53 4.688-.172 4-.172c-.72 0-1.297-.422-1.672-1.03-.422-.64-.47-1.547-.47-2.203 0-.594.03-1.547.5-2.266.328-.5.938-1.016 1.797-1.016.563 0 1.234.234 1.72.953.188.266.188.297.188.594zm0 0" class="C"/></symbol><symbol id="U" class="B"><path d="M10.5-3.672c.28 0 .563 0 .563-.312s-.28-.312-.562-.312H1.875c-.266 0-.547 0-.547.313s.28.313.547.313zm0 0" class="C"/></symbol><symbol id="V" class="B"><path d="M6.203-4.437L3.016-7.61c-.187-.187-.22-.22-.36-.22-.156 0-.312.14-.312.328 0 .11.03.14.203.313l3.188 3.203L2.547-.78c-.172.172-.203.203-.203.313 0 .188.156.328.313.328.14 0 .172-.03.36-.22L6.188-3.53 9.484-.234c.03.016.14.094.234.094a.32.32 0 0 0 .328-.328c0-.03 0-.094-.047-.172-.016-.03-2.562-2.53-3.36-3.344l2.922-2.922c.078-.094.313-.297.406-.39.016-.03.078-.094.078-.203a.32.32 0 0 0-.328-.328c-.125 0-.187.063-.36.234zm0 0" class="C"/></symbol><symbol id="W" class="B"><path d="M3.047-3.72c.875 0 1.5.594 1.5 1.78 0 1.39-.812 1.797-1.453 1.797-.453 0-1.437-.11-1.906-.78.53-.016.656-.39.656-.625a.6.6 0 0 0-.609-.609c-.312 0-.625.188-.625.656C.61-.453 1.766.22 3.11.22c1.547 0 2.625-1.03 2.625-2.156 0-.86-.72-1.734-1.937-1.984C4.97-4.344 5.39-5.187 5.39-5.875c0-.875-1.016-1.53-2.25-1.53-1.25 0-2.187.594-2.187 1.5a.53.53 0 0 0 .578.578.54.54 0 0 0 .563-.562.55.55 0 0 0-.562-.578c.39-.5 1.156-.61 1.563-.61.516 0 1.22.234 1.22 1.203 0 .47-.156.984-.453 1.328-.375.438-.687.453-1.234.484l-.36.03c-.016 0-.11.03-.11.156 0 .156.094.156.28.156zm0 0" class="C"/></symbol><symbol id="X" class="B"><path d="M5.172-2.516h3.406c.14 0 .406 0 .406-.28 0-.266-.25-.266-.406-.266H5.172V-6.5c0-.14 0-.406-.28-.406-.266 0-.266.25-.266.406v3.438H1.188c-.14 0-.406 0-.406.266 0 .28.25.28.406.28h3.438V.906c0 .14 0 .406.266.406.28 0 .28-.25.28-.406zm0 0" class="C"/></symbol><symbol id="Y" class="B"><path d="M7.813-3.72c.22-.562.594-.672.938-.687v-.406l-.812.047a13.08 13.08 0 0 1-1.094-.047v.406c.39.016.594.22.594.484 0 .094 0 .125-.078.28L6.28-.875 5.078-3.922c-.03-.047-.062-.14-.062-.203 0-.25.297-.28.61-.28v-.406l-1.203.047c-.328 0-.656-.016-.984-.047v.406c.25 0 .484 0 .64.094.156.11.25.47.25.484 0 .03-.016.094-.047.14L3.234-1.03 2.11-3.922c-.062-.156-.062-.156-.062-.203 0-.28.39-.28.594-.28v-.406l-1.25.047c-.36 0-.703-.016-1.062-.047v.406c.438 0 .688 0 .813.328L2.688-.14c.063.156.11.25.297.25.203 0 .234-.094.297-.234l1.266-3.187L5.78-.156c.063.172.11.266.313.266s.234-.078.297-.25zm0 0" class="C"/></symbol><symbol id="Z" class="B"><path d="M3.734-7.094c0-.297-.016-.312-.328-.312-.72.703-1.734.72-2.187.72v.39c.266 0 1 0 1.61-.312v5.688c0 .375 0 .516-1.11.516h-.422V0C1.5-.016 2.86-.047 3.28-.047l2 .047v-.406H4.86c-1.125 0-1.125-.14-1.125-.516zm0 0" class="C"/></symbol><symbol id="a" class="B"><path d="M5.906-1.828v-.406h-1.25v-4.97c0-.234 0-.312-.234-.312-.14 0-.187 0-.297.156L.438-2.234v.406h3.28v.906c0 .39 0 .516-.906.516h-.297V0l1.672-.047L5.875 0v-.406h-.312c-.906 0-.906-.125-.906-.516v-.906zm-2.11-4.484v4.078H.844zm0 0" class="C"/></symbol><symbol id="b" class="B"><path d="M4.97-2.984c0-.594 0-1.016-.5-1.437-.47-.375-1-.547-1.656-.547C1.75-4.97 1-4.578 1-3.89c0 .36.25.547.547.547s.516-.22.516-.53c0-.187-.094-.422-.39-.516.406-.266 1.047-.266 1.125-.266a1.26 1.26 0 0 1 1.297 1.344v.344c-.61.03-1.344.063-2.156.36C.922-2.25.61-1.625.61-1.125.61-.172 1.78.11 2.563.11c.89 0 1.422-.5 1.656-.937.047.453.344.89.86.89.016 0 1.11 0 1.11-1.062v-.625h-.39v.61c0 .11 0 .64-.406.64-.422 0-.422-.516-.422-.656zm-.875 1.406c0 1.078-.937 1.375-1.437 1.375-.562 0-1.11-.375-1.11-.922 0-.61.547-1.47 2.547-1.547zm0 0" class="C"/></symbol><symbol id="c" class="B"><path d="M2.22-7.75l-1.672.125v.406c.766 0 .844.094.844.64V0h.375l.39-.687c.422.563 1.03.797 1.625.797C5.25.11 6.516-1 6.516-2.406c0-1.36-1.156-2.516-2.61-2.516-.672 0-1.28.266-1.687.672zm.047 4.016c.313-.516.906-.875 1.578-.875a1.57 1.57 0 0 1 1.297.688c.22.328.36.766.36 1.5 0 .25 0 1.094-.453 1.625-.453.5-1 .594-1.328.594-.89 0-1.328-.703-1.453-.937zm0 0" class="C"/></symbol><symbol id="d" class="B"><path d="M8.11-6.437c-.016-.047-.078-.172-.078-.22 0-.016.28-.25.47-.375l2.78-2.156c1.5-1.094 2.125-1.156 2.594-1.203.14-.016.297-.03.297-.312 0-.078-.047-.187-.172-.187l-1.14.047c-.578 0-1.187-.047-1.766-.047-.11 0-.297 0-.297.328 0 .11.078.156.188.172.344.03.484.11.484.328 0 .297-.47.656-.562.734l-6.22 4.78 1.266-5.11c.156-.578.188-.734 1.344-.734.406 0 .547 0 .547-.312 0-.156-.125-.187-.22-.187l-2.047.047c-.47 0-1.594-.047-2.062-.047-.11 0-.312 0-.312.313 0 .188.14.188.47.188l.672.03c.266.03.36.078.36.25 0 .063-.016.11-.062.313L2.5-1.25c-.156.625-.187.75-1.453.75C.78-.5.61-.5.61-.187.61 0 .797 0 .844 0l2.03-.047L3.89-.03l1.03.03c.11 0 .328 0 .328-.312C5.25-.5 5.094-.5 4.797-.5c-.594 0-1.03 0-1.03-.28 0-.11.094-.47.14-.703l.64-2.5 2.375-1.844 1.844 4.28c.188.438.188.47.188.563 0 .47-.687.484-.828.484-.172 0-.344 0-.344.328C7.78 0 7.97 0 8 0l1.938-.047L11.5 0c.094 0 .297 0 .297-.312 0-.187-.172-.187-.328-.187-.64-.016-.86-.156-1.094-.72zm0 0" class="C"/></symbol><symbol id="e" class="B"><path d="M3.063-.844a.85.85 0 0 0-.844-.844.84.84 0 0 0-.844.844.84.84 0 0 0 .844.844.85.85 0 0 0 .844-.844zm0 0" class="C"/></symbol><symbol id="f" class="B"><path d="M8.297-2.516c.188 0 .453 0 .453-.28 0-.266-.266-.266-.453-.266h-6.64c-.187 0-.453 0-.453.266 0 .28.266.28.453.28zm0 0" class="C"/></symbol><symbol id="g" class="B"><path d="M11.156 37.438c0-.062-.03-.094-.062-.14-.594-.594-1.656-1.656-2.72-3.375-2.578-4.125-3.734-9.297-3.734-15.437 0-4.28.578-9.812 3.203-14.562a17.53 17.53 0 0 1 3.266-4.266c.047-.062.047-.094.047-.14 0-.156-.11-.156-.328-.156-.234 0-.266 0-.5.234C4.984 4.47 3.313 11.766 3.313 18.47c0 6.266 1.438 12.578 5.484 17.344a18.25 18.25 0 0 0 1.578 1.594.45.45 0 0 0 .453.188c.22 0 .328 0 .328-.156zm0 0" class="C"/></symbol><symbol id="h" class="B"><path d="M8.406 18.484c0-6.266-1.437-12.578-5.484-17.344C2.594.78 2 .125 1.344-.453 1.14-.64 1.11-.64.89-.64c-.187 0-.328 0-.328.156 0 .063.063.14.094.172.563.563 1.625 1.64 2.688 3.36 2.563 4.11 3.734 9.28 3.734 15.422 0 4.297-.578 9.828-3.203 14.563-1.266 2.266-2.578 3.594-3.25 4.266-.03.047-.062.094-.062.14 0 .156.14.156.328.156.22 0 .25 0 .5-.234C6.72 32.5 8.406 25.203 8.406 18.484zm0 0" class="C"/></symbol></defs><g class="D"><use xlink:href="#A" x="12.454" y="14.49"/><use xlink:href="#B" x="21.311" y="14.49"/><use xlink:href="#C" x="37.691" y="14.49"/><use xlink:href="#U" x="54.518" y="14.49"/><use xlink:href="#D" x="69.573" y="14.49"/><use xlink:href="#E" x="74.001" y="14.49"/><use xlink:href="#F" x="81.971" y="14.49"/><use xlink:href="#G" x="92.826" y="14.49"/><use xlink:href="#B" x="97.254" y="14.49"/><use xlink:href="#W" x="109.202" y="16.882"/><use xlink:href="#H" x="116.354" y="14.49"/><use xlink:href="#X" x="128.75" y="7.539"/><use xlink:href="#I" x="139.333" y="14.49"/><use xlink:href="#d" x="207.718" y="14.49"/><use xlink:href="#Y" x="221.256" y="16.882"/><use xlink:href="#C" x="235.579" y="14.49"/><use xlink:href="#J" x="252.409" y="14.49"/><use xlink:href="#e" x="260.376" y="14.49"/><use xlink:href="#K" x="264.803" y="14.49"/><use xlink:href="#V" x="276.317" y="14.49"/><use xlink:href="#J" x="292.256" y="14.49"/><use xlink:href="#K" x="300.226" y="14.49"/><use xlink:href="#f" x="308.197" y="7.909"/><use xlink:href="#Z" x="318.158" y="7.909"/><use xlink:href="#a" x="324.513" y="7.909"/><use xlink:href="#C" x="336.091" y="14.49"/><use xlink:href="#G" x="352.921" y="14.49"/><use xlink:href="#B" x="357.349" y="14.49"/><use xlink:href="#W" x="369.301" y="16.882"/><use xlink:href="#H" x="376.451" y="14.49"/><use xlink:href="#X" x="388.85" y="7.539"/><use xlink:href="#I" x="399.432" y="14.49"/><use xlink:href="#G" x="403.86" y="14.49"/><use xlink:href="#H" x="408.288" y="14.49"/><use xlink:href="#B" x="420.687" y="14.49"/><use xlink:href="#f" x="432.642" y="7.539"/><use xlink:href="#I" x="443.4" y="14.49"/><use xlink:href="#A" x=".056" y="40.464"/><use xlink:href="#H" x="8.912" y="40.464"/><use xlink:href="#B" x="21.307" y="40.464"/><use xlink:href="#C" x="37.688" y="40.464"/><use xlink:href="#U" x="54.518" y="40.464"/><use xlink:href="#D" x="69.573" y="40.464"/><use xlink:href="#E" x="74.001" y="40.464"/><use xlink:href="#F" x="81.971" y="40.464"/><use xlink:href="#G" x="92.826" y="40.464"/><use xlink:href="#H" x="97.254" y="40.464"/><use xlink:href="#B" x="109.653" y="40.464"/><use xlink:href="#f" x="121.6" y="33.512"/><use xlink:href="#I" x="132.36" y="40.464"/><use xlink:href="#J" x="194.842" y="40.464"/><use xlink:href="#L" x="202.812" y="40.464"/><use xlink:href="#e" x="210.784" y="40.464"/><use xlink:href="#K" x="215.211" y="40.464"/><use xlink:href="#K" x="223.181" y="40.464"/><use xlink:href="#C" x="235.583" y="40.464"/><use xlink:href="#A" x="252.412" y="40.464"/><use xlink:href="#B" x="261.269" y="40.464"/><use xlink:href="#M" x="276.763" y="40.464"/><use xlink:href="#A" x="292.7" y="40.464"/><use xlink:href="#H" x="301.556" y="40.464"/><use xlink:href="#B" x="313.954" y="40.464"/><use xlink:href="#d" x="9.83" y="75.693"/><use xlink:href="#Y" x="23.368" y="78.083"/><use xlink:href="#C" x="37.693" y="75.693"/><use xlink:href="#d" x="54.518" y="75.693"/><use xlink:href="#b" x="68.056" y="78.083"/><use xlink:href="#d" x="75.208" y="75.693"/><use xlink:href="#c" x="88.746" y="78.083"/><use xlink:href="#A" x="210.341" y="75.693"/><use xlink:href="#B" x="219.197" y="75.693"/><use xlink:href="#C" x="235.577" y="75.693"/><use xlink:href="#A" x="252.404" y="75.693"/><use xlink:href="#d" x="261.261" y="75.693"/><use xlink:href="#b" x="275.939" y="79.589"/><use xlink:href="#M" x="286.634" y="75.693"/><use xlink:href="#D" x="302.571" y="75.693"/><use xlink:href="#E" x="306.999" y="75.693"/><use xlink:href="#F" x="314.969" y="75.693"/><use xlink:href="#g" x="325.819" y="53.216"/><use xlink:href="#G" x="339.466" y="64.909"/><use xlink:href="#N" x="343.894" y="64.909"/><use xlink:href="#O" x="352.75" y="64.909"/><use xlink:href="#P" x="360.72" y="64.909"/><use xlink:href="#Q" x="367.007" y="64.909"/><use xlink:href="#I" x="374.091" y="64.909"/></g><path d="M339.465 71.707h39.055" fill="none" stroke="rgb(0%,0%,0%)" stroke-miterlimit="10" stroke-width=".637"/><g class="D"><use xlink:href="#G" x="340.395" y="86.627"/><use xlink:href="#O" x="344.823" y="86.627"/><use xlink:href="#R" x="352.793" y="86.627"/><use xlink:href="#S" x="359.877" y="86.627"/><use xlink:href="#T" x="364.305" y="86.627"/><use xlink:href="#I" x="373.162" y="86.627"/><use xlink:href="#h" x="380.432" y="53.216"/><use xlink:href="#A" x="2.579" y="110.602"/><use xlink:href="#d" x="11.435" y="110.602"/><use xlink:href="#b" x="26.114" y="114.498"/><use xlink:href="#C" x="37.693" y="110.602"/><use xlink:href="#U" x="54.518" y="110.602"/><use xlink:href="#D" x="69.573" y="110.602"/><use xlink:href="#E" x="74.001" y="110.602"/><use xlink:href="#F" x="81.971" y="110.602"/><use xlink:href="#d" x="92.819" y="110.602"/><use xlink:href="#b" x="106.357" y="112.992"/></g></svg>